<?xml version="1.0" encoding="UTF-8"?>
<svg id="Capa_1" data-name="Capa 1" xmlns="http://www.w3.org/2000/svg" viewBox="0 0 989.06 551.68">
  <defs>
    <style>
      .cls-1 {
        fill: #e6e6e6;
      }

      .cls-1, .cls-2, .cls-3 {
        stroke-width: 0px;
      }

      .cls-2 {
        fill: #b3b3b3;
      }

      .cls-3 {
        fill: #fff;
      }
    </style>
  </defs>
  <path class="cls-3" d="m495.49,440.83l-19.73-29.68-.04-.06-89.27-134.29s-45.14-93-100.82-93-100.82,41.63-100.82,93,45.14,93,100.82,93c17.65,0,34.22-9.33,48.65-22.09l105.05,149.37c-45.87,34.3-102.77,54.61-164.45,54.61C123.06,551.68,0,428.62,0,276.8S123.06,1.92,274.88,1.92c89.21,0,168.51,42.5,218.73,108.37l1.88,330.54Z"/>
  <path class="cls-1" d="m495.49,440.83c-15.9,21.36-34.83,40.33-56.16,56.25l-105.05-149.37c31.1-27.49,52.17-70.91,52.17-70.91l89.27,134.29.04.06c5.94,10.33,12.53,20.25,19.73,29.68Z"/>
  <path class="cls-2" d="m654.97,208.67c-29.43,27.55-49.13,68.13-49.13,68.13l-94.34-139.94c-5.48-9.22-11.46-18.09-17.93-26.57,15.9-21.34,34.83-40.31,56.16-56.25l105.24,154.64Z"/>
  <path class="cls-1" d="m989.06,274.88c0,151.82-123.08,274.88-274.88,274.88-89.23,0-168.51-42.5-218.73-108.37l-1.88-330.54,17.93,26.57,94.34,139.94s45.14,93,100.82,93,100.84-41.63,100.84-93-45.14-93-100.84-93c-18.89,0-36.58,10.73-51.69,24.87l-105.24-154.64C595.58,20.31,652.5,0,714.18,0c151.8,0,274.88,123.08,274.88,274.88Z"/>
</svg>