<?xml version="1.0" encoding="UTF-8"?>
<svg id="Capa_1" data-name="Capa 1" xmlns="http://www.w3.org/2000/svg" viewBox="0 0 920.54 753.3">
  <defs>
    <style>
      .cls-1 {
        letter-spacing: -.01em;
      }

      .cls-2 {
        letter-spacing: 0em;
      }

      .cls-3, .cls-4, .cls-5 {
        stroke-width: 0px;
      }

      .cls-3, .cls-6 {
        fill: #e6e6e6;
      }

      .cls-7 {
        letter-spacing: 0em;
      }

      .cls-4 {
        fill: #b3b3b3;
      }

      .cls-5 {
        fill: #fff;
      }

      .cls-6 {
        font-family: ProductSans-Regular, 'Product Sans';
        font-size: 164.28px;
      }
    </style>
  </defs>
  <text class="cls-6" transform="translate(106.65 140.95)"><tspan class="cls-7" x="0" y="0">Sw</tspan><tspan x="211.42" y="0">ap</tspan><tspan class="cls-1" x="389.5" y="0">D</tspan><tspan class="cls-2" x="500.55" y="0">e</tspan><tspan x="589.42" y="0">al</tspan></text>
  <path class="cls-5" d="m461.17,650.12l-18.36-27.62-.04-.06-83.09-124.99s-42.01-86.56-93.84-86.56-93.84,38.75-93.84,86.56,42.01,86.56,93.84,86.56c16.43,0,31.85-8.68,45.28-20.56l97.77,139.02c-42.69,31.92-95.65,50.83-153.06,50.83-141.3,0-255.84-114.54-255.84-255.85s114.54-255.84,255.84-255.84c83.03,0,156.84,39.56,203.58,100.86l1.75,307.64h0Z"/>
  <path class="cls-3" d="m461.17,650.12c-14.8,19.88-32.42,37.54-52.27,52.35l-97.77-139.02c28.95-25.59,48.56-66,48.56-66l83.09,124.99.04.06c5.53,9.61,11.66,18.85,18.36,27.62h0Z"/>
  <path class="cls-4" d="m609.6,434.04c-27.39,25.64-45.73,63.41-45.73,63.41l-87.8-130.25c-5.1-8.58-10.67-16.84-16.69-24.73,14.8-19.86,32.42-37.52,52.27-52.35l97.95,143.93h0Z"/>
  <path class="cls-3" d="m920.54,495.66c0,141.3-114.55,255.84-255.84,255.84-83.05,0-156.84-39.56-203.58-100.86l-1.75-307.64,16.69,24.73,87.8,130.25s42.01,86.56,93.84,86.56,93.85-38.75,93.85-86.56-42.01-86.56-93.85-86.56c-17.58,0-34.05,9.99-48.11,23.15l-97.95-143.93c42.67-31.91,95.65-50.81,153.06-50.81,141.28,0,255.84,114.55,255.84,255.84Z"/>
</svg>